<svg width="100" height="100" viewBox="0 0 100 100" fill="none" xmlns="http://www.w3.org/2000/svg">
<g clip-path="url(#clip0_42_11)">
<path d="M77.5546 0H22.4454C10.0492 0 0 10.0492 0 22.4454V77.5546C0 89.9508 10.0492 100 22.4454 100H77.5546C89.9508 100 100 89.9508 100 77.5546V22.4454C100 10.0492 89.9508 0 77.5546 0Z" fill="#FD3832"/>
<path fill-rule="evenodd" clip-rule="evenodd" d="M27.7104 68.4794C26.7109 68.1764 25.7988 67.6375 25.0513 66.9081C24.3037 66.1786 23.7426 65.28 23.4153 64.2882C21.5449 59.1618 20.9906 37.7555 24.593 33.5296C25.7919 32.1549 27.4847 31.3086 29.3038 31.1742C38.9678 30.1351 68.8258 30.2736 72.2549 31.5206C73.2194 31.8335 74.1006 32.3606 74.8325 33.0625C75.5643 33.7643 76.1278 34.6227 76.4808 35.5733C78.5244 40.8729 78.5937 60.1316 76.2037 65.2234C75.5697 66.5488 74.5082 67.6225 73.1902 68.2716C69.5878 70.0727 32.4905 70.0381 27.7104 68.4794ZM43.0551 58.4344L60.3741 49.4285L43.0551 40.3533V58.4344Z" fill="white"/>
</g>
<defs>
<clipPath id="clip0_42_11">
<rect width="100" height="100" fill="white"/>
</clipPath>
</defs>
</svg>
