<svg width="100" height="100" viewBox="0 0 100 100" fill="none" xmlns="http://www.w3.org/2000/svg">
<g clip-path="url(#clip0_42_3)">
<path d="M85 0H15C6.71573 0 0 6.71573 0 15V85C0 93.2843 6.71573 100 15 100H85C93.2843 100 100 93.2843 100 85V15C100 6.71573 93.2843 0 85 0Z" fill="#5281B8"/>
<path d="M53.5156 70.8984C54.4922 70.7031 56.25 70.3125 56.25 67.9688C56.25 67.9688 56.0547 62.1094 58.7891 61.3281C61.5234 60.5469 65.0391 66.9922 68.75 69.5312C71.4844 71.2891 73.6328 71.0938 73.6328 71.0938L83.5938 70.8984C83.5938 70.8984 88.6719 70.5078 86.3281 66.4062C86.1328 66.0156 84.5703 63.4766 78.7109 58.2031C72.6562 52.3438 73.6328 53.3203 80.8594 43.3594C85.3516 37.3047 87.3047 33.5937 86.7188 32.2266C85.9375 30.8594 82.8125 31.0547 82.8125 31.0547H71.6797C70.5078 31.0547 69.9219 31.25 69.3359 32.2266C69.3359 32.2266 67.5781 37.1094 65.2344 41.0156C60.3516 49.4141 58.3984 49.8047 57.4219 49.2188C55.6641 48.2422 56.0547 44.5312 56.0547 41.9922C56.0547 33.2031 57.4219 30.0781 53.5156 29.2969C50.9766 28.9062 41.9922 28.5156 39.2578 29.8828C37.8906 30.6641 37.1094 32.0312 37.6953 32.2266C38.2812 32.2266 40.0391 32.4219 41.0156 33.5937C42.5781 36.1328 42.7734 48.2422 40.625 49.4141C37.6953 51.5625 30.2734 37.3047 28.5156 32.6172C28.125 31.4453 27.5391 31.25 26.1719 30.8594H15.4297C14.2578 30.8594 12.5 31.0547 13.2812 33.3984C18.5547 44.3359 29.4922 71.0938 49.2188 70.8984H53.5156Z" fill="white"/>
</g>
<defs>
<clipPath id="clip0_42_3">
<rect width="100" height="100" fill="white"/>
</clipPath>
</defs>
</svg>
